<?xml version="1.0" encoding="utf-8"?>
<!-- Generator: Adobe Illustrator 22.0.0, SVG Export Plug-In . SVG Version: 6.00 Build 0)  -->
<svg version="1.1" id="Layer_1" xmlns="http://www.w3.org/2000/svg" xmlns:xlink="http://www.w3.org/1999/xlink" x="0px" y="0px"
	 viewBox="0 0 1024 444.1" style="enable-background:new 0 0 1024 444.1;" xml:space="preserve">
<style type="text/css">
	.st0{fill:#558194;}
	.st1{fill:#BEC1BE;fill-opacity:0.5;}
	.st2{fill:#88A4B8;fill-opacity:0.5;}
	.st3{fill:#88D4E7;fill-opacity:0.6;}
	.st4{fill:#BCE5F1;}
	.st5{fill:#558194;fill-opacity:0.5;}
	.st6{fill:#B8E4ED;}
	.st7{opacity:0.5;fill:#558194;enable-background:new    ;}
	.st8{fill:#B8E4ED;fill-opacity:0.6;}
	.st9{fill:#BCE5F1;fill-opacity:0.6;}
	.st10{fill:#88D4E7;}
	.st11{fill:#5EC9DF;}
	.st12{fill:#3CBECC;}
	.st13{fill:none;stroke:#BCE5F1;stroke-width:4.8;stroke-linecap:round;stroke-linejoin:round;}
	.st14{opacity:0.8;}
	.st15{fill:#F3F4EC;}
	.st16{filter:url(#Adobe_OpacityMaskFilter);}
	.st17{fill:#FFFFFF;}
	.st18{mask:url(#c_1_);fill:#E3E5D7;fill-opacity:0.75;}
	.st19{filter:url(#Adobe_OpacityMaskFilter_1_);}
	.st20{mask:url(#c_2_);fill:#D2D6C5;}
	.st21{filter:url(#Adobe_OpacityMaskFilter_2_);}
	.st22{mask:url(#c_3_);fill:#D2D6C5;}
	.st23{filter:url(#Adobe_OpacityMaskFilter_3_);}
	.st24{mask:url(#c_4_);fill:#D2D6C5;}
</style>
<g>
	<path class="st0" d="M32.2,15.8l-3.3,0.6l-1.3,3l-2.2-2.5l-3.3,0.4l1.1-3.1l-2-2.6l3.3-0.6l1.3-3l2.2,2.5l3.3-0.4l-1.1,3.1
		L32.2,15.8z"/>
	<path class="st1" d="M84.7,93.7l-2.2,1.4l-0.1,2.6l-2.3-1.2l-2.2,1.2l-0.1-2.5l-2.2-1.4l2.2-1.4l0.1-2.6l2.3,1.2l2.3-1.2l0.1,2.5
		L84.7,93.7z"/>
	<path class="st2" d="M938.4,335.5l0,2.1l1.9,1.2l-1.9,1.1l-0.1,2.1l-1.9-1l-2,1l0-2.1l-1.9-1.2l1.9-1.1l0.1-2.1l1.9,1L938.4,335.5z
		"/>
	<path class="st0" d="M824,259.3l-0.5,1.9l1.6,1.4l-2.2,0.6l-0.6,1.9l-1.7-1.3l-2.2,0.5l0.5-1.9l-1.6-1.4l2.2-0.6l0.6-1.9l1.7,1.3
		L824,259.3z M989.3,299.3l-1.3,0.1l-0.6,1.2l-0.8-1.1l-1.3,0.1l0.5-1.2l-0.7-1.2l1.3-0.1l0.6-1.2l0.8,1.1l1.3,0l-0.5,1.2
		L989.3,299.3z"/>
	<path class="st1" d="M53.2,273.3l1,2.5l-1.6,2.3l2.7,0.4l1.2,2.5l1.7-2.1l2.8,0.2l-1-2.5l1.6-2.3l-2.7-0.4l-1.2-2.5l-1.7,2.1
		L53.2,273.3z"/>
	<path class="st0" d="M581.3,95.4l0.7,2.1l-1.2,1.8l2,0.3l0.9,2l1.3-1.7l2,0.2l-0.7-2.1l1.2-1.8l-2-0.3l-0.9-2l-1.3,1.7L581.3,95.4z
		 M137.3,248.5l0.5,1.1l-0.7,1l1.3,0.2l0.6,1.1l0.8-0.9l1.3,0.1l-0.5-1.1l0.7-1l-1.3-0.2l-0.6-1.1l-0.8,0.9L137.3,248.5z
		 M97.3,328.5l0.5,1.1l-0.7,1l1.3,0.2l0.6,1.1l0.8-0.9l1.3,0.1l-0.5-1.1l0.7-1l-1.3-0.2l-0.6-1.1l-0.8,0.9L97.3,328.5z M285.1,109
		l-2.4,0.3l-1.1,2.1l-1.4-1.9l-2.5,0.1l1-2.2l-1.3-2l2.4-0.3l1.1-2.1l1.5,1.9l2.5-0.1l-1,2.2L285.1,109z M983.1,104l-1.8,0.5
		l1.3,1.2l-0.4,1.6l1.9-0.4l1.4,1.1l0.5-1.6l1.8-0.5l-1.3-1.2l0.4-1.6l-1.9,0.4l-1.4-1.1L983.1,104z"/>
	<path class="st3" d="M908.1,266.2l-2.6,1.7l-0.1,3.1l-2.7-1.5L900,271l-0.1-3.1l-2.6-1.7l2.6-1.7l0.1-3.1l2.7,1.5l2.7-1.5l0.1,3.1
		L908.1,266.2z"/>
	<path class="st0" d="M730.5,187.9c0,2.2-1.8,4-4.1,4c-2.3,0-4.1-1.8-4.1-4c0-2.2,1.8-4,4.1-4C728.7,183.9,730.5,185.7,730.5,187.9
		 M927.5,169.5c0,0.8-0.6,1.4-1.4,1.4c-0.8,0-1.4-0.6-1.4-1.4c0,0,0,0,0,0c0-0.8,0.6-1.4,1.4-1.4
		C926.8,168.1,927.5,168.8,927.5,169.5"/>
	<path class="st4" d="M179.2,218c0,0.9-0.8,1.7-1.7,1.7c-0.9,0-1.7-0.7-1.7-1.7c0-0.9,0.8-1.7,1.7-1.7S179.2,217.1,179.2,218"/>
	<path class="st0" d="M140.6,144.7c0,1.8-1.5,3.3-3.4,3.3s-3.4-1.5-3.4-3.3c0-1.8,1.5-3.3,3.4-3.3S140.6,142.9,140.6,144.7
		 M34,179.4c0,2.7-2.2,4.9-5,4.9c-2.8,0-5-2.2-5-4.9c0-2.7,2.2-4.9,5-4.9C31.8,174.5,34,176.7,34,179.4"/>
	<path class="st4" d="M275.3,189.3c0,1.4-1.1,2.5-2.5,2.5c-1.4,0-2.5-1.1-2.5-2.5c0-1.4,1.1-2.5,2.5-2.5
		C274.2,186.9,275.3,188,275.3,189.3"/>
	<path class="st0" d="M175.3,309.3c0,1.4-1.1,2.5-2.5,2.5c-1.4,0-2.5-1.1-2.5-2.5c0-1.4,1.1-2.5,2.5-2.5
		C174.2,306.9,175.3,308,175.3,309.3"/>
	<path class="st5" d="M335.3,429.3c0,1.4-1.1,2.5-2.5,2.5c-1.4,0-2.5-1.1-2.5-2.5c0-1.4,1.1-2.5,2.5-2.5
		C334.2,426.9,335.3,428,335.3,429.3 M363.3,438.3c0,0.8-0.7,1.5-1.5,1.5c-0.8,0-1.5-0.6-1.5-1.5c0-0.8,0.7-1.5,1.5-1.5
		C362.6,436.9,363.3,437.5,363.3,438.3"/>
	<path class="st0" d="M697.3,388.5l0.5,1.1l-0.7,1l1.3,0.2l0.6,1.1l0.8-0.9l1.3,0.1l-0.5-1.1l0.7-1l-1.3-0.2l-0.6-1.1l-0.8,0.9
		L697.3,388.5z"/>
	<path class="st6" d="M749.2,348c0,0.9-0.8,1.7-1.7,1.7c-0.9,0-1.7-0.7-1.7-1.7c0-0.9,0.8-1.7,1.7-1.7S749.2,347.1,749.2,348"/>
	<path class="st0" d="M437.3,108.5l0.5,1.1l-0.7,1l1.3,0.2l0.6,1.1l0.8-0.9l1.3,0.1l-0.5-1.1l0.7-1l-1.3-0.2l-0.6-1.1l-0.8,0.9
		L437.3,108.5z M489.2,68c0,0.9-0.8,1.7-1.7,1.7c-0.9,0-1.7-0.7-1.7-1.7c0-0.9,0.8-1.7,1.7-1.7S489.2,67.1,489.2,68 M929.2,78
		c0,0.9-0.8,1.7-1.7,1.7c-0.9,0-1.7-0.7-1.7-1.7c0-0.9,0.8-1.7,1.7-1.7S929.2,77.1,929.2,78 M843.3,328.3c0,0.8-0.7,1.5-1.5,1.5
		c-0.8,0-1.5-0.6-1.5-1.5c0-0.8,0.7-1.5,1.5-1.5C842.6,326.9,843.3,327.5,843.3,328.3 M677.6,78.1c0,1.6-1.3,2.9-3,2.9s-3-1.3-3-2.9
		c0-1.6,1.3-2.9,3-2.9S677.6,76.5,677.6,78.1 M156.2,128c0,0.9-0.8,1.7-1.7,1.7c-0.9,0-1.7-0.8-1.7-1.7c0-0.9,0.8-1.7,1.7-1.7
		C155.5,126.3,156.2,127.1,156.2,128"/>
	<path class="st5" d="M987.6,441.1c-2.3,0-4.2-1.8-4.2-4.1c0-2.3,1.9-4.1,4.2-4.1s4.2,1.8,4.2,4.1
		C991.8,439.3,989.9,441.1,987.6,441.1"/>
	<path class="st0" d="M981.2,187.6l-2.2,0.2l-1,1.9l-1.3-1.8l-2.2,0.1l0.9-2l-1.2-1.8l2.2-0.2l1-1.9l1.3,1.7l2.2-0.1l-0.9,2
		L981.2,187.6z M879.7,211.9c0,1.2-1,2.2-2.3,2.2c-1.3,0-2.3-1-2.3-2.2s1-2.2,2.3-2.2C878.7,209.7,879.7,210.7,879.7,211.9"/>
	<path class="st7" d="M723.8,132.6c0,1.4-1.2,2.6-2.7,2.6c-1.5,0-2.7-1.2-2.7-2.6s1.2-2.6,2.7-2.6
		C722.6,130,723.8,131.1,723.8,132.6"/>
	<path class="st8" d="M862.7,339.3c0,1-0.8,1.9-1.9,1.9c-1,0-1.9-0.8-1.9-1.9c0-1,0.8-1.9,1.9-1.9
		C861.9,337.5,862.7,338.3,862.7,339.3"/>
	<path class="st5" d="M925.7,413.3c0,1-0.8,1.9-1.9,1.9c-1,0-1.9-0.8-1.9-1.9c0-1,0.8-1.9,1.9-1.9
		C924.9,411.5,925.7,412.3,925.7,413.3"/>
	<path class="st0" d="M348.9,4.7l-1.7,1.1l-0.1,2l-1.8-0.9l-1.8,0.9l-0.1-2l-1.7-1.1l1.7-1.1l0.1-2l1.8,0.9l1.8-0.9l0.1,2L348.9,4.7
		z"/>
	<path class="st9" d="M422.9,142.7c0,1.5-1.2,2.7-2.7,2.7c-1.5,0-2.7-1.2-2.7-2.7s1.2-2.7,2.7-2.7
		C421.7,140,422.9,141.2,422.9,142.7"/>
	<path class="st5" d="M997.8,283.8c0,1.9-1.5,3.4-3.4,3.4c-1.9,0-3.4-1.5-3.4-3.4c0-1.9,1.5-3.4,3.4-3.4
		C996.2,280.5,997.8,282,997.8,283.8"/>
	<g>
		<path class="st10" d="M893.1,110.1c-8.8-5-18.8-7.7-29-7.7c-23.7,0-45,14.2-54,36.1c-9.1,21.9-4,47,12.7,63.7
			c16.7,16.7,41.9,21.7,63.7,12.7c21.9-9.1,36.1-30.4,36.1-54.1v0c0-18.3-8.5-35.5-23.1-46.5c-1.6,1.5-4.1,1.4-5.6-0.2
			C892.9,113.1,892.6,111.5,893.1,110.1L893.1,110.1z"/>
		<path class="st11" d="M911.2,155.9c0,25.8-20.9,46.7-46.7,46.7c-25.8,0-46.7-20.9-46.7-46.7s20.9-46.7,46.7-46.7
			C890.3,109.1,911.2,130,911.2,155.9C911.2,155.9,911.2,155.9,911.2,155.9z"/>
		<path class="st12" d="M847.9,198.8c0,2.3-1.8,4.3-4.2,4.3c-2.3,0-4.3-1.8-4.3-4.2c0,0,0-0.1,0-0.1c0-2.3,2-4.2,4.3-4.2
			C846,194.7,847.9,196.5,847.9,198.8z M908.6,140.9c0,4.8-3.9,8.6-8.6,8.6s-8.6-3.9-8.6-8.6s3.9-8.6,8.6-8.6
			S908.6,136.1,908.6,140.9z"/>
		<path class="st6" d="M886.4,206.4c-2.9,0-5.2,2.3-5.2,5.2c0,1.8,0.9,3.4,2.4,4.4c2.8-1,5.5-2.2,8.1-3.5c0.5-2.8-1.4-5.5-4.3-6
			C887,206.5,886.7,206.4,886.4,206.4L886.4,206.4L886.4,206.4z"/>
		<path class="st13" d="M807.5,185.9c32.7,5.2,81.1-2.4,115.3-42"/>
		<path class="st12" d="M840,120.9c0.8,1.1-1.1,3.7-4.1,5.8c-3,2.1-6.1,2.8-6.9,1.7c-0.8-1.1,1.1-3.7,4.1-5.8S839.3,119.7,840,120.9
			L840,120.9L840,120.9z"/>
	</g>
	<g transform="translate(82 211)" class="st14">
		<g>
			<circle id="b_1_" class="st15" cx="30" cy="-11.4" r="30"/>
		</g>
		<defs>
			<filter id="Adobe_OpacityMaskFilter" filterUnits="userSpaceOnUse" x="5" y="-38.4" width="49" height="49">
				<feColorMatrix  type="matrix" values="1 0 0 0 0  0 1 0 0 0  0 0 1 0 0  0 0 0 1 0"/>
			</filter>
		</defs>
		<mask maskUnits="userSpaceOnUse" x="5" y="-38.4" width="49" height="49" id="c_1_">
			<g class="st16">
				<circle id="b_2_" class="st17" cx="30" cy="-11.4" r="30"/>
			</g>
		</mask>
		<circle class="st18" cx="29.5" cy="-13.9" r="24.5"/>
		<defs>
			<filter id="Adobe_OpacityMaskFilter_1_" filterUnits="userSpaceOnUse" x="41" y="-32.4" width="24" height="24">
				<feColorMatrix  type="matrix" values="1 0 0 0 0  0 1 0 0 0  0 0 1 0 0  0 0 0 1 0"/>
			</filter>
		</defs>
		<mask maskUnits="userSpaceOnUse" x="41" y="-32.4" width="24" height="24" id="c_2_">
			<g class="st19">
				<circle id="b_3_" class="st17" cx="30" cy="-11.4" r="30"/>
			</g>
		</mask>
		<circle class="st20" cx="53" cy="-20.4" r="12"/>
		<defs>
			<filter id="Adobe_OpacityMaskFilter_2_" filterUnits="userSpaceOnUse" x="3" y="-17.4" width="7" height="7">
				<feColorMatrix  type="matrix" values="1 0 0 0 0  0 1 0 0 0  0 0 1 0 0  0 0 0 1 0"/>
			</filter>
		</defs>
		<mask maskUnits="userSpaceOnUse" x="3" y="-17.4" width="7" height="7" id="c_3_">
			<g class="st21">
				<circle id="b_4_" class="st17" cx="30" cy="-11.4" r="30"/>
			</g>
		</mask>
		<circle class="st22" cx="6.5" cy="-13.9" r="3.5"/>
		<defs>
			<filter id="Adobe_OpacityMaskFilter_3_" filterUnits="userSpaceOnUse" x="24" y="1.6" width="13" height="13">
				<feColorMatrix  type="matrix" values="1 0 0 0 0  0 1 0 0 0  0 0 1 0 0  0 0 0 1 0"/>
			</filter>
		</defs>
		<mask maskUnits="userSpaceOnUse" x="24" y="1.6" width="13" height="13" id="c_4_">
			<g class="st23">
				<circle id="b_5_" class="st17" cx="30" cy="-11.4" r="30"/>
			</g>
		</mask>
		<circle class="st24" cx="30.5" cy="8.1" r="6.5"/>
	</g>
</g>
</svg>
